<svg id="Layer_1" data-name="Layer 1" xmlns="http://www.w3.org/2000/svg" xmlns:xlink="http://www.w3.org/1999/xlink" viewBox="0 0 64 64"><defs><style>.cls-1{fill:#373435;}.cls-2{fill:url(#linear-gradient);}.cls-3{fill:#fff;}.cls-4{fill:url(#linear-gradient-2);}.cls-5{fill:url(#linear-gradient-3);}.cls-6{fill:url(#linear-gradient-4);}.cls-7{fill:url(#linear-gradient-5);}.cls-8{fill:url(#linear-gradient-6);}.cls-9{fill:url(#linear-gradient-7);}.cls-10{fill:url(#linear-gradient-8);}</style><linearGradient id="linear-gradient" x1="0.98" y1="-4858.05" x2="63.03" y2="-4858.05" gradientTransform="matrix(1, 0, 0, -1, 0, -4826.04)" gradientUnits="userSpaceOnUse"><stop offset="0" stop-color="#fa8303"/><stop offset="1" stop-color="#f4a705"/></linearGradient><linearGradient id="linear-gradient-2" x1="30.02" y1="-4864.56" x2="34.29" y2="-4864.56" xlink:href="#linear-gradient"/><linearGradient id="linear-gradient-3" x1="25.19" y1="-4862.96" x2="28.9" y2="-4862.96" xlink:href="#linear-gradient"/><linearGradient id="linear-gradient-4" x1="24.74" y1="-4857.23" x2="28.18" y2="-4857.23" xlink:href="#linear-gradient"/><linearGradient id="linear-gradient-5" x1="35.83" y1="-4857.25" x2="39.19" y2="-4857.25" xlink:href="#linear-gradient"/><linearGradient id="linear-gradient-6" x1="35.16" y1="-4862.9" x2="38.68" y2="-4862.9" xlink:href="#linear-gradient"/><linearGradient id="linear-gradient-7" x1="33.13" y1="-4853.56" x2="36.6" y2="-4853.56" xlink:href="#linear-gradient"/><linearGradient id="linear-gradient-8" x1="27.38" y1="-4853.55" x2="30.76" y2="-4853.55" xlink:href="#linear-gradient"/></defs><g id="Layer_2" data-name="Layer 2"><g id="Layer_1-2" data-name="Layer 1-2"><path class="cls-1" d="M32.18,1.7l.35.18c4.56,2.22,9.12,4.46,13.69,6.67,3.45,1.67,6.91,3.3,10.37,4.94a.83.83,0,0,1,.5.62c.35,1.6.71,3.2,1.06,4.79.64,2.89,1.27,5.79,1.93,8.68.82,3.58,1.67,7.17,2.5,10.75L63,40.25v.52c-.1.13-.19.26-.3.39-2.86,3.55-5.74,7.09-8.6,10.66-2.67,3.35-5.32,6.73-8,10.09a1.09,1.09,0,0,1-.5.4H44.16c-.13,0-.25,0-.38,0-2.89,0-5.78-.05-8.67-.05H35c-5.4,0-10.8,0-16.19,0h-.09c-.54,0-.56,0-.94-.5C15,58.2,12.17,54.63,9.35,51.08,6.67,47.71,4,44.36,1.25,41l-.18-.24A.57.57,0,0,1,1,40.34c.35-1.45.69-2.91,1-4.37q2.31-9.72,4.45-19.48c.18-.83.38-1.67.56-2.5a.63.63,0,0,1,.35-.48l.21-.1c4-1.91,8.07-3.81,12.09-5.74s8-3.91,12.06-5.86l.18-.11h.25m.2-.82H31.7L31.5,1l-.07,0,0,0L27.85,2.8,19.33,6.93c-2.79,1.34-5.63,2.68-8.39,4L7.25,12.67l-.09,0-.11,0a1.47,1.47,0,0,0-.81,1.05c-.08.36-.16.73-.25,1.09s-.21.94-.32,1.42c-1.52,6.93-3,13.3-4.45,19.46-.16.69-.33,1.38-.48,2.06S.37,39.38.19,40.15a1.38,1.38,0,0,0,.17,1,3.3,3.3,0,0,0,.22.3l0,0c.84,1,1.7,2.1,2.52,3.13C5,46.92,6.86,49.27,8.71,51.59c2,2.48,3.95,5,5.87,7.45l2.54,3.22h0a2.25,2.25,0,0,0,.66.65,1.81,1.81,0,0,0,.92.17h5c3.7,0,7.54,0,11.31,0h.12l6.14,0,2.52,0,.18,0h1.82l.11,0a1.79,1.79,0,0,0,.91-.67L49,59.68c1.9-2.41,3.87-4.91,5.83-7.36s3.94-4.9,5.87-7.28l2.72-3.37.23-.3.08-.12.17-.22v-.87l0-.09-.14-.6c-.1-.44-.21-.88-.31-1.33-.26-1.1-.52-2.22-.77-3.31-.57-2.43-1.16-5-1.73-7.44-.46-2-.9-4-1.34-6L59,18.72c-.09-.41-.19-.84-.28-1.26-.26-1.15-.53-2.35-.78-3.52a1.63,1.63,0,0,0-1-1.19l-2.15-1c-2.7-1.28-5.49-2.6-8.22-3.92-3.21-1.55-6.47-3.14-9.63-4.69l-4-2L32.66,1,32.56,1Z"/><path class="cls-2" d="M62.58,38.33c-.83-3.58-1.68-7.17-2.5-10.75-.66-2.89-1.28-5.79-1.93-8.68-.35-1.59-.71-3.19-1.06-4.79a.83.83,0,0,0-.5-.62c-3.46-1.64-6.92-3.27-10.37-4.94Q39.36,5.24,32.53,1.88l-.35-.18h-.25l-.18.11c-4,1.95-8,3.92-12.06,5.86S11.63,11.5,7.6,13.41l-.21.1A.64.64,0,0,0,7,14c-.18.84-.38,1.67-.56,2.51Q4.33,26.25,2,36c-.34,1.46-.68,2.92-1,4.37a.56.56,0,0,0,.08.42,2.15,2.15,0,0,0,.18.24c2.7,3.36,5.42,6.71,8.1,10.08q4.23,5.33,8.42,10.68c.4.5.39.5,1,.5l16.19,0c2.93,0,5.86,0,8.79.06l.38,0h1.49a1,1,0,0,0,.5-.39q4-5.05,8-10.1c2.86-3.56,5.74-7.1,8.6-10.66.11-.12.2-.26.3-.39v-.51ZM41.86,51.45h0a1.34,1.34,0,0,1-.2.21A18.8,18.8,0,0,1,32.53,56a19,19,0,0,1-16.32-4.78A19.25,19.25,0,0,1,10,37c0-.11,0-.22,0-.36-.65,0-1.29,0-1.94,0,.11-.19,3.27-3.11,3.66-3.39.19.08,3.59,3.18,3.72,3.4h-2c0,.14,0,.26,0,.37a17.5,17.5,0,0,0,3.91,11.21,17.25,17.25,0,0,0,10.67,6.39,17.52,17.52,0,0,0,13.47-2.91,3.37,3.37,0,0,1,.32-.19h0l.08-.09,0,0ZM45.93,36a.92.92,0,0,1-.47.19,2.75,2.75,0,0,1-.76,0c-.63-.12-1.24-.26-1.86-.39-.18,0-.37-.09-.52.1s-.15,0-.22,0l-.82-.09c-.27,0-.28,0-.37.23a9.45,9.45,0,0,1-3.32,4.53l-.21.17c0,.1.09.2.13.29L38,42c0,.12.1.25,0,.36a.25.25,0,0,0,0,.31l.63,1.21a5.85,5.85,0,0,1,.35.71,1.59,1.59,0,0,1,.1.57.54.54,0,0,1-.84.48,1.62,1.62,0,0,1-.5-.44,8.36,8.36,0,0,1-.46-.83l-.53-1a.19.19,0,0,0-.22-.14.33.33,0,0,1-.34-.17L36,42.85,35.59,42l-.15-.24a9.6,9.6,0,0,1-6.66.12c-.06.08-.12.15-.17.23-.16.27-.33.54-.5.81a.94.94,0,0,1-.5.42.31.31,0,0,0-.18.16c-.27.44-.52.9-.8,1.35a7.25,7.25,0,0,1-.46.67,1,1,0,0,1-.48.33.59.59,0,0,1-.74-.38l0-.05a1,1,0,0,1,.05-.66c.11-.22.23-.44.35-.65l.75-1.23a.44.44,0,0,0,.05-.37A.61.61,0,0,1,26.2,42c.15-.29.29-.58.43-.87l.11-.26c-.42-.35-.84-.67-1.22-1a10.85,10.85,0,0,1-1.07-1.18,9.79,9.79,0,0,1-.85-1.34c-.25-.47-.44-1-.66-1.47l-.19,0-1.16.22c-.25,0-.26,0-.37-.19l-.07-.16-.23,0c-.46.1-.91.21-1.38.3a6.87,6.87,0,0,1-.78.08,1.26,1.26,0,0,1-.33,0,.63.63,0,0,1-.53-.49.63.63,0,0,1,.38-.67,2.69,2.69,0,0,1,.9-.28l1.59-.31c.11,0,.2-.05.21-.18a.39.39,0,0,1,.36-.35l.84-.15c.36-.07.36,0,.35-.41a9.31,9.31,0,0,1,.92-4.38c.17-.34.36-.67.55-1s.11-.18-.05-.32L23.29,27c-.09-.08-.16-.16-.12-.29s-.05-.17-.12-.23c-.53-.41-1.06-.82-1.58-1.24a4.78,4.78,0,0,1-.54-.47.81.81,0,0,1-.26-.52.53.53,0,0,1,.39-.61.91.91,0,0,1,.63,0,2.14,2.14,0,0,1,.81.54c.43.44.95.75,1.41,1.15.09.07.18.14.3.06s.18,0,.26.05l.72.5.25.17.24-.2a9.37,9.37,0,0,1,5-2.3c.25,0,.26,0,.28-.3s0-.67.08-1c0-.13,0-.26.16-.33s.09-.15.09-.24c0-.6,0-1.18,0-1.78A3,3,0,0,1,31.3,19a1.33,1.33,0,0,1,.19-.42.56.56,0,0,1,1,.06,1.86,1.86,0,0,1,.16.57,3.75,3.75,0,0,1,0,.58v1.86c0,.14,0,.28.15.37a.43.43,0,0,1,.09.26c0,.33,0,.66.06,1s0,.26.29.3A9.3,9.3,0,0,1,38.36,26l.18.15.25-.16c.24-.16.47-.33.72-.49.07-.05.19-.1.25-.07a.28.28,0,0,0,.3-.06,15.12,15.12,0,0,0,1.52-1.23,3.6,3.6,0,0,1,.57-.39,1.1,1.1,0,0,1,.64-.14.56.56,0,0,1,.51.76,1.41,1.41,0,0,1-.28.45,4.79,4.79,0,0,1-.55.46L41,26.48a.33.33,0,0,0-.12.21.48.48,0,0,1-.19.35l-.58.51a1.64,1.64,0,0,1-.22.14L40,28a9.36,9.36,0,0,1,1.39,5.46c0,.27,0,.27.23.34l.77.2a.39.39,0,0,1,.29.19.38.38,0,0,0,.22.15c.58.12,1.16.22,1.74.33a6.13,6.13,0,0,1,.87.21,1.36,1.36,0,0,1,.46.28A.53.53,0,0,1,45.93,36Zm9.79-5.71c-.75.69-1.5,1.38-2.26,2.06l-1,.92-.23.2c-.25-.14-3.6-3.22-3.7-3.41.64-.05,1.28,0,1.94,0,0-.13,0-.24,0-.34A17.44,17.44,0,0,0,46,17.77,17.24,17.24,0,0,0,35.61,12,17.54,17.54,0,0,0,22.4,15l-.25.17A19.13,19.13,0,0,1,53.94,30l.31,0h1.63C55.88,30.18,55.78,30.22,55.72,30.28Z"/><path class="cls-3" d="M46,35.15a1.31,1.31,0,0,0-.45-.28,6.87,6.87,0,0,0-.87-.21l-1.74-.33a.36.36,0,0,1-.22-.16.42.42,0,0,0-.29-.19l-.77-.19c-.26-.07-.25-.07-.24-.34A9.34,9.34,0,0,0,40,28c0-.07-.09-.15-.17-.29l.22-.15c.19-.16.38-.34.58-.5a.45.45,0,0,0,.18-.35.4.4,0,0,1,.12-.21l1.52-1.22A6.22,6.22,0,0,0,43,24.8a1.33,1.33,0,0,0,.27-.46.56.56,0,0,0-.5-.75,1.07,1.07,0,0,0-.65.14,3.6,3.6,0,0,0-.57.39,18,18,0,0,1-1.51,1.23c-.1.06-.17.11-.3.06s-.18,0-.25.07c-.25.15-.48.32-.72.49l-.25.15L38.35,26a9.35,9.35,0,0,0-5.11-2.4c-.26,0-.27,0-.28-.3l-.06-1c0-.09,0-.21-.09-.25a.39.39,0,0,1-.16-.38c0-.62,0-1.23,0-1.85a3.88,3.88,0,0,0,0-.59,1.86,1.86,0,0,0-.15-.56.57.57,0,0,0-1-.06,1.57,1.57,0,0,0-.18.42,2.69,2.69,0,0,0-.08.94c0,.59,0,1.18,0,1.77,0,.09,0,.2-.1.25s-.14.19-.15.33c0,.33-.05.66-.08,1s0,.27-.29.3a9.46,9.46,0,0,0-5,2.31,2.11,2.11,0,0,1-.23.19l-.26-.16-.71-.5c-.08-.05-.16-.12-.26-.06s-.21,0-.3-.05c-.46-.4-1-.72-1.41-1.16a2.42,2.42,0,0,0-.81-.53.91.91,0,0,0-.63,0,.53.53,0,0,0-.39.61.88.88,0,0,0,.25.52c.18.17.36.32.55.47L23,26.43c.08.06.16.12.13.23s0,.21.11.29l.67.6c.15.14.15.14.05.32s-.39.65-.55,1a9.37,9.37,0,0,0-.93,4.38c0,.4,0,.35-.35.42l-.83.15c-.2,0-.34.13-.36.34s-.11.17-.21.19l-1.59.31a2.84,2.84,0,0,0-.9.27.64.64,0,0,0-.38.67.62.62,0,0,0,.52.5.93.93,0,0,0,.33,0,5.16,5.16,0,0,0,.79-.07l1.38-.3.22,0,.08.16c.11.23.11.24.37.19l1.16-.22a.58.58,0,0,1,.18,0c.23.5.41,1,.66,1.47a12.68,12.68,0,0,0,.86,1.34,10.85,10.85,0,0,0,1.07,1.18c.38.36.81.68,1.23,1,0,.08-.07.17-.11.25-.15.3-.29.59-.44.88a.6.6,0,0,0-.07.49.42.42,0,0,1-.05.36c-.25.41-.5.82-.74,1.24a5.84,5.84,0,0,0-.35.65.92.92,0,0,0-.06.65.59.59,0,0,0,.7.45l.06,0a.88.88,0,0,0,.48-.32,8.19,8.19,0,0,0,.47-.68c.27-.44.52-.9.79-1.35a.38.38,0,0,1,.18-.15,1,1,0,0,0,.5-.42l.51-.81.16-.24a9.54,9.54,0,0,0,6.66-.1c.06.1.11.16.15.24l.45.86a1.64,1.64,0,0,0,.14.22.34.34,0,0,0,.34.18c.12,0,.17,0,.22.13l.53,1a8.2,8.2,0,0,0,.46.82,1.59,1.59,0,0,0,.49.44.54.54,0,0,0,.84-.47,1.37,1.37,0,0,0-.09-.57,6,6,0,0,0-.35-.72L38,42.71c-.05-.11-.09-.2,0-.31A.33.33,0,0,0,38,42l-.48-1-.13-.29.21-.17A9.36,9.36,0,0,0,40.91,36c.09-.25.09-.26.37-.23l.82.1c.07,0,.18,0,.21,0,.15-.2.35-.14.52-.1.62.12,1.24.27,1.86.39a2.83,2.83,0,0,0,.77,0,.94.94,0,0,0,.46-.19A.53.53,0,0,0,46,35.15Zm-21.19-2a6.47,6.47,0,0,1,1-3.89l.18.14,1.88,1.7a1.27,1.27,0,0,1,.22.25.65.65,0,0,1-.18.89l0,0a2.37,2.37,0,0,1-.6.29l-2.34.6Zm4.08,2.77a2.41,2.41,0,0,1-.08.25l-1,2.39a1.76,1.76,0,0,1-.12.23,7.3,7.3,0,0,1-2.49-3.33l.25-.07,2-.29a4.72,4.72,0,0,1,.84,0,.61.61,0,0,1,.61.84ZM29.71,29c-.77-.51-1.53-1-2.29-1.56a.21.21,0,0,1,0-.06,6.23,6.23,0,0,1,3.38-1.55,1.61,1.61,0,0,1,0,.22l-.12,2.18a2.9,2.9,0,0,1-.06.41.56.56,0,0,1-.87.36ZM30,39.87a1.24,1.24,0,0,1,.1-.2c.22-.35.44-.69.65-1.05s.5-.84.75-1.25a2,2,0,0,1,.21-.3.65.65,0,0,1,1,.1c.45.79.94,1.57,1.41,2.35l.12.22a6.56,6.56,0,0,1-4.27.13Zm4.06-10.72a.62.62,0,0,1-.76-.56c0-.32-.07-.65-.1-1l-.09-1.57a1.28,1.28,0,0,1,0-.19,6.38,6.38,0,0,1,3.46,1.59l-.08.09L34.37,29a.74.74,0,0,1-.29.12Zm2.32,9.47a2.19,2.19,0,0,1-.13-.27c-.32-.68-.63-1.37-.93-2.05a2.32,2.32,0,0,1-.16-.44.58.58,0,0,1,.63-.76l1.12.14,1.4.18.35.06a6.37,6.37,0,0,1-2.28,3.14Zm2.79-5.49-.28,0-2.28-.61a1.92,1.92,0,0,1-.51-.22.51.51,0,0,1-.22-.73,2.29,2.29,0,0,1,.38-.54c.59-.56,1.18-1.09,1.78-1.63a.57.57,0,0,1,.13-.08,7.14,7.14,0,0,1,1,3.86Z"/><path class="cls-3" d="M55.88,30c0,.15-.1.19-.16.25-.75.69-1.5,1.38-2.26,2.06l-1,.92-.23.2c-.25-.14-3.6-3.22-3.7-3.41.64-.05,1.28,0,1.94,0,0-.13,0-.24,0-.34A17.44,17.44,0,0,0,46,17.77,17.24,17.24,0,0,0,35.61,12,17.54,17.54,0,0,0,22.4,15l-.25.17A19.13,19.13,0,0,1,53.94,30l.31,0h1.63Z"/><path class="cls-3" d="M41.84,51.47l-.2.21a19.14,19.14,0,0,1-25.43-.47A19.25,19.25,0,0,1,10,37c0-.1,0-.21,0-.35-.65,0-1.29,0-1.94,0,.11-.19,3.27-3.11,3.66-3.4.19.09,3.59,3.18,3.72,3.41h-2c0,.14,0,.26,0,.37a17.45,17.45,0,0,0,3.91,11.2,17.26,17.26,0,0,0,10.67,6.4,17.52,17.52,0,0,0,13.47-2.91A3.37,3.37,0,0,1,41.84,51.47Z"/><path class="cls-4" d="M34.29,39.75a6.63,6.63,0,0,1-4.27.12,1.86,1.86,0,0,1,.1-.2c.22-.35.44-.69.65-1l.75-1.26a2,2,0,0,1,.21-.3.66.66,0,0,1,1,.1c.45.79.94,1.57,1.41,2.36Z"/><path class="cls-5" d="M28.87,35.9a1.83,1.83,0,0,1-.08.25l-1,2.39a1.76,1.76,0,0,1-.12.23,7.3,7.3,0,0,1-2.49-3.33,1.83,1.83,0,0,1,.25-.06c.66-.1,1.32-.21,2-.29a3.94,3.94,0,0,1,.84,0A.61.61,0,0,1,28.87,35.9Z"/><path class="cls-6" d="M27.85,32.25a2.73,2.73,0,0,1-.6.28l-2.34.6h-.12a6.47,6.47,0,0,1,1-3.89l.18.14,1.88,1.7a1.09,1.09,0,0,1,.22.26.64.64,0,0,1-.18.88Z"/><path class="cls-7" d="M39.19,33.14l-.28,0c-.76-.2-1.52-.39-2.28-.61a1.92,1.92,0,0,1-.51-.22.51.51,0,0,1-.22-.73,2.29,2.29,0,0,1,.38-.54l1.78-1.63a.57.57,0,0,1,.13-.08A7.14,7.14,0,0,1,39.19,33.14Z"/><path class="cls-8" d="M38.68,35.48a6.33,6.33,0,0,1-2.28,3.14,2.19,2.19,0,0,1-.13-.27c-.32-.68-.63-1.37-.93-2.05a2.32,2.32,0,0,1-.16-.44.57.57,0,0,1,.63-.75c.38,0,.75.08,1.12.13l1.4.18Z"/><path class="cls-9" d="M36.6,27.45l-.08.09L34.37,29a.77.77,0,0,1-.28.12.62.62,0,0,1-.77-.56c0-.32-.07-.65-.09-1,0-.52-.07-1-.1-1.57a1.09,1.09,0,0,1,0-.18A6.3,6.3,0,0,1,36.6,27.45Z"/><path class="cls-10" d="M30.76,26.09l-.12,2.18a2.9,2.9,0,0,1-.06.41.56.56,0,0,1-.87.36c-.77-.5-1.53-1-2.29-1.56,0,0,0,0,0-.06a6.23,6.23,0,0,1,3.38-1.55A1.6,1.6,0,0,1,30.76,26.09Z"/></g></g></svg>