<svg id="Layer_1" data-name="Layer 1" xmlns="http://www.w3.org/2000/svg" xmlns:xlink="http://www.w3.org/1999/xlink" viewBox="0 0 16 16"><defs><style>.cls-1{fill:#373435;}.cls-2{fill:url(#linear-gradient);}.cls-3{fill:#fff;}.cls-4{fill:url(#linear-gradient-2);}.cls-5{fill:url(#linear-gradient-3);}.cls-6{fill:url(#linear-gradient-4);}.cls-7{fill:url(#linear-gradient-5);}.cls-8{fill:url(#linear-gradient-6);}.cls-9{fill:url(#linear-gradient-7);}.cls-10{fill:url(#linear-gradient-8);}</style><linearGradient id="linear-gradient" x1="0.3" y1="-4882.04" x2="15.7" y2="-4882.04" gradientTransform="matrix(1, 0, 0, -1, 0, -4874.04)" gradientUnits="userSpaceOnUse"><stop offset="0" stop-color="#fa8303"/><stop offset="1" stop-color="#f4a705"/></linearGradient><linearGradient id="linear-gradient-2" x1="7.51" y1="-4883.66" x2="8.57" y2="-4883.66" xlink:href="#linear-gradient"/><linearGradient id="linear-gradient-3" x1="6.31" y1="-4883.26" x2="7.23" y2="-4883.26" xlink:href="#linear-gradient"/><linearGradient id="linear-gradient-4" x1="6.2" y1="-4881.84" x2="7.05" y2="-4881.84" xlink:href="#linear-gradient"/><linearGradient id="linear-gradient-5" x1="8.95" y1="-4881.85" x2="9.78" y2="-4881.85" xlink:href="#linear-gradient"/><linearGradient id="linear-gradient-6" x1="8.79" y1="-4883.25" x2="9.66" y2="-4883.25" xlink:href="#linear-gradient"/><linearGradient id="linear-gradient-7" x1="8.28" y1="-4880.93" x2="9.14" y2="-4880.93" xlink:href="#linear-gradient"/><linearGradient id="linear-gradient-8" x1="6.85" y1="-4880.93" x2="7.69" y2="-4880.93" xlink:href="#linear-gradient"/></defs><g id="Layer_2" data-name="Layer 2"><g id="Layer_1-2" data-name="Layer 1-2"><path class="cls-1" d="M8.05.48l.08,0,3.4,1.66L14.1,3.4a.21.21,0,0,1,.13.16c.09.4.18.79.26,1.19L15,6.9c.21.89.42,1.78.62,2.67,0,.16.08.32.11.48v.13l-.07.09c-.71.89-1.43,1.76-2.13,2.65s-1.33,1.67-2,2.51a.22.22,0,0,1-.12.09h-.47l-2.15,0H4.7c-.13,0-.14,0-.23-.12L2.38,12.74l-2-2.5a.18.18,0,0,1,0-.07.12.12,0,0,1,0-.1C.39,9.71.47,9.35.56,9c.38-1.61.75-3.22,1.1-4.84.05-.21.1-.41.14-.62a.19.19,0,0,1,.09-.12l.05,0c1-.47,2-.94,3-1.42L7.94.5l0,0h.07m0-.21H7.93l0,0h0L7,.75l-2.11,1-2.09,1-.92.43H1.8a.4.4,0,0,0-.2.26,2.14,2.14,0,0,1-.06.27c0,.12-.05.24-.08.36C1.09,5.83.72,7.41.36,8.94l-.12.51c0,.19-.09.38-.14.57a.39.39,0,0,0,0,.26l.06.07h0l.62.78,1.39,1.72,1.46,1.85c.2.27.42.54.63.8h0a.41.41,0,0,0,.16.16.4.4,0,0,0,.23.05h6.75a.46.46,0,0,0,.22-.17l.54-.68,1.44-1.82,1.46-1.81.68-.84.05-.07,0,0,0-.06V10l0-.15c0-.11,0-.22-.08-.32-.06-.28-.13-.56-.19-.83-.14-.6-.29-1.23-.43-1.84l-.33-1.49-.15-.67-.07-.31c-.06-.29-.13-.58-.19-.87a.41.41,0,0,0-.24-.3L13.66,3l-2-1L9.23.83l-1-.49-.06,0h0Z"/><path class="cls-2" d="M15.59,9.57c-.2-.89-.41-1.78-.62-2.67l-.48-2.15c-.09-.4-.17-.79-.26-1.19a.21.21,0,0,0-.13-.16L11.53,2.18,8.13.52l-.08,0H8l0,0L4.94,2l-3,1.42-.05,0a.19.19,0,0,0-.09.12c0,.21-.09.41-.14.62C1.31,5.77.94,7.38.56,9c-.09.36-.17.72-.26,1.08a.12.12,0,0,0,0,.1.18.18,0,0,0,0,.07l2,2.5,2.09,2.65c.1.12.09.12.25.12h4l2.18,0h.47a.22.22,0,0,0,.12-.09c.66-.84,1.32-1.68,2-2.51s1.42-1.77,2.13-2.65l.07-.09v-.13Zm-5.14,3.26h0l0,.06A4.65,4.65,0,0,1,8.13,14a4.74,4.74,0,0,1-4.05-1.19A4.69,4.69,0,0,1,2.61,10a3.51,3.51,0,0,1-.06-.79s0-.06,0-.09H2.06c0-.05.81-.77.91-.84s.89.79.92.84H3.41a.34.34,0,0,0,0,.09,4.35,4.35,0,0,0,1,2.79A4.28,4.28,0,0,0,7,13.6a4.31,4.31,0,0,0,3.34-.72l.08-.05h0l0,0h0Zm1-3.84a.31.31,0,0,1-.12,0h-.19l-.46-.1a.11.11,0,0,0-.13,0h-.05l-.21,0c-.06,0-.06,0-.09.06a2.3,2.3,0,0,1-.82,1.12l-.05,0,0,.08.12.25a.1.1,0,0,1,0,.09s0,.05,0,.08l.15.3a.56.56,0,0,1,.09.17.26.26,0,0,1,0,.15.13.13,0,0,1-.2.11.33.33,0,0,1-.13-.11,1.28,1.28,0,0,1-.11-.2c-.05-.09-.09-.17-.13-.26a.06.06,0,0,0-.06,0s-.06,0-.08,0l0-.06a2.12,2.12,0,0,0-.11-.21l0-.06a2.37,2.37,0,0,1-1.66,0l0,.06-.13.2a.24.24,0,0,1-.12.1l0,0c-.06.11-.12.22-.19.33l-.12.17a.2.2,0,0,1-.12.08.13.13,0,0,1-.18-.09h0a.25.25,0,0,1,0-.17A.65.65,0,0,1,6.35,11l.18-.3a.1.1,0,0,0,0-.09.19.19,0,0,1,0-.13l.11-.21,0-.07A2.6,2.6,0,0,1,6.39,10a1.87,1.87,0,0,1-.26-.3,2.7,2.7,0,0,1-.22-.33c-.06-.11-.1-.24-.16-.36h0L5.42,9c-.07,0-.07,0-.1,0v0H5.25L4.91,9l-.2,0H4.63c-.06,0-.12,0-.13-.13a.16.16,0,0,1,.09-.16.51.51,0,0,1,.23-.07l.39-.08s0,0,0,0a.11.11,0,0,1,.09-.09l.21,0c.09,0,.09,0,.09-.1a2.28,2.28,0,0,1,.23-1.09L6,7c0-.05,0-.05,0-.08l-.16-.15a.08.08,0,0,1,0-.08s0,0,0,0l-.39-.31-.14-.12a.2.2,0,0,1-.06-.13.14.14,0,0,1,.1-.15.26.26,0,0,1,.15,0,.48.48,0,0,1,.2.14c.11.1.24.18.35.28s0,0,.08,0,0,0,.06,0l.18.12.06,0,.06,0a2.35,2.35,0,0,1,1.23-.58c.07,0,.07,0,.07-.07a2.11,2.11,0,0,0,0-.25.09.09,0,0,1,0-.08s0,0,0-.06V5a.65.65,0,0,1,0-.24.42.42,0,0,1,0-.1.14.14,0,0,1,.25,0,.33.33,0,0,1,0,.14.33.33,0,0,1,0,.14v.46a.1.1,0,0,0,0,.1s0,0,0,.06,0,.16,0,.25,0,.06.07.07a2.28,2.28,0,0,1,1.27.6l0,0,.07,0,.17-.12.07,0a0,0,0,0,0,.07,0A2.85,2.85,0,0,0,10.38,6,.67.67,0,0,1,10.52,6a.29.29,0,0,1,.16,0,.13.13,0,0,1,.12.19.24.24,0,0,1-.06.11l-.14.12-.38.3a.05.05,0,0,0,0,0,.13.13,0,0,1,0,.09L10,6.89l-.05,0L10,7a2.41,2.41,0,0,1,.35,1.36c0,.07,0,.07.05.08l.2.05.07,0a.1.1,0,0,0,.05,0l.43.08.22.05a.41.41,0,0,1,.11.07A.13.13,0,0,1,11.46,9Zm2.43-1.42-.56.52-.25.22-.06,0c-.06,0-.89-.8-.92-.85h.48a.31.31,0,0,0,0-.09,4.33,4.33,0,0,0-1.11-2.95A4.26,4.26,0,0,0,8.9,3a4.35,4.35,0,0,0-3.28.74l-.07,0a4.71,4.71,0,0,1,4.48-1,4.61,4.61,0,0,1,2.5,1.76,4.7,4.7,0,0,1,.92,2.92h.48S13.9,7.56,13.89,7.57Z"/><path class="cls-3" d="M11.47,8.78a.41.41,0,0,0-.11-.07l-.22-.05-.43-.08a.1.1,0,0,1-.05,0,.14.14,0,0,0-.08,0l-.19-.05c-.06,0-.06,0-.06-.08A2.32,2.32,0,0,0,10,7l0-.07.05,0,.14-.12a.11.11,0,0,0,0-.09.05.05,0,0,1,0,0l.38-.3.13-.12a.19.19,0,0,0,.07-.11.13.13,0,0,0-.12-.19.29.29,0,0,0-.16,0,.67.67,0,0,0-.14.09,3.68,3.68,0,0,1-.38.31s0,0-.07,0l-.07,0-.18.12a.09.09,0,0,1-.06,0,.08.08,0,0,1,0,0,2.34,2.34,0,0,0-1.27-.59c-.07,0-.07,0-.07-.07s0-.17,0-.25,0,0,0-.06a.1.1,0,0,1,0-.1V5a.65.65,0,0,0,0-.14.57.57,0,0,0,0-.14.14.14,0,0,0-.25,0,.42.42,0,0,0,0,.1.49.49,0,0,0,0,.24v.44s0,0,0,.06a.07.07,0,0,0,0,.08,2.11,2.11,0,0,1,0,.25c0,.06,0,.06-.07.07a2.35,2.35,0,0,0-1.23.58l-.06,0-.06,0-.18-.12s0,0-.06,0a.06.06,0,0,1-.08,0c-.11-.1-.24-.18-.35-.29a.69.69,0,0,0-.2-.13.29.29,0,0,0-.16,0,.13.13,0,0,0-.09.15.16.16,0,0,0,.06.13l.13.12.4.31s0,0,0,0a.06.06,0,0,0,0,.08L6,6.9s0,0,0,.08l-.13.24a2.17,2.17,0,0,0-.23,1.09c0,.1,0,.08-.09.1l-.21,0a.1.1,0,0,0-.09.08s0,0,0,.05l-.39.08a.62.62,0,0,0-.23.07.15.15,0,0,0-.09.16A.13.13,0,0,0,4.63,9l.08,0,.2,0,.34-.08h0l0,0c0,.06,0,.06.09,0L5.7,9h0c0,.12.1.24.16.36a2.7,2.7,0,0,0,.22.33,2.55,2.55,0,0,0,.26.3l.31.25,0,.07-.11.21a.17.17,0,0,0,0,.12s0,.07,0,.09L6.35,11a.65.65,0,0,0-.09.16.25.25,0,0,0,0,.17.15.15,0,0,0,.17.11h0a.2.2,0,0,0,.12-.08l.12-.17c.07-.11.13-.22.19-.33l0,0a.32.32,0,0,0,.13-.1l.12-.2,0-.06a2.34,2.34,0,0,0,1.65,0l0,.06a2.12,2.12,0,0,1,.11.21.21.21,0,0,0,0,.06s0,.05.08,0a.05.05,0,0,1,.06,0c0,.08.08.17.13.25a2.12,2.12,0,0,0,.11.21.41.41,0,0,0,.13.1.13.13,0,0,0,.2-.11.26.26,0,0,0,0-.15A.56.56,0,0,0,9.64,11l-.15-.3a.06.06,0,0,1,0-.08s0-.06,0-.09l-.12-.25,0-.07.05-.05A2.3,2.3,0,0,0,10.21,9c0-.06,0-.07.09-.06l.21,0h.05a.11.11,0,0,1,.13,0l.46.1h.19a.31.31,0,0,0,.12,0A.13.13,0,0,0,11.47,8.78Zm-5.26-.5a1.56,1.56,0,0,1,.25-1l0,0L7,7.77,7,7.83a.17.17,0,0,1,0,.22H7l-.15.07-.58.15Zm1,.69A.14.14,0,0,1,7.2,9L7,9.62l0,.06a1.83,1.83,0,0,1-.62-.83h.06l.49-.07h.21A.15.15,0,0,1,7.22,9Zm.21-1.7-.57-.39v0a1.58,1.58,0,0,1,.84-.38v0l0,.54s0,.07,0,.1a.15.15,0,0,1-.22.1ZM7.51,10s0,0,0,0,.11-.17.17-.26l.18-.31,0-.07a.16.16,0,0,1,.26,0c.11.2.23.39.35.59l0,.05a1.54,1.54,0,0,1-1.06,0Zm1-2.66a.15.15,0,0,1-.19-.14l0-.24c0-.13,0-.26,0-.39v0a1.55,1.55,0,0,1,.86.39,0,0,0,0,1,0,0l-.53.37a.11.11,0,0,1-.07,0Zm.57,2.35,0-.06c-.08-.17-.16-.34-.23-.51a.49.49,0,0,1,0-.11A.15.15,0,0,1,9,8.77l.27,0,.35,0h.09a1.57,1.57,0,0,1-.57.78Zm.69-1.36H9.72l-.57-.15A.38.38,0,0,1,9,8.06a.12.12,0,0,1,0-.18.38.38,0,0,1,.09-.13l.44-.41,0,0a1.81,1.81,0,0,1,.24,1Z"/><path class="cls-3" d="M13.93,7.51s0,0,0,.06l-.56.52-.25.22-.06,0c-.06,0-.89-.8-.92-.85h.48a.31.31,0,0,0,0-.09,4.33,4.33,0,0,0-1.11-2.95A4.26,4.26,0,0,0,8.9,3a4.35,4.35,0,0,0-3.28.74l-.07,0a4.71,4.71,0,0,1,4.48-1,4.61,4.61,0,0,1,2.5,1.76,4.7,4.7,0,0,1,.92,2.92h.48Z"/><path class="cls-3" d="M10.44,12.83l0,.06A4.65,4.65,0,0,1,8.13,14a4.74,4.74,0,0,1-4.05-1.19A4.69,4.69,0,0,1,2.61,10a3.55,3.55,0,0,1-.06-.8s0-.05,0-.08H2.06c0-.05.81-.77.91-.84s.89.79.92.84H3.41a.34.34,0,0,0,0,.09,4.37,4.37,0,0,0,1,2.79A4.28,4.28,0,0,0,7,13.6a4.31,4.31,0,0,0,3.34-.72Z"/><path class="cls-4" d="M8.57,9.92a1.54,1.54,0,0,1-1.06,0l0,0,.16-.26.19-.32,0-.07a.16.16,0,0,1,.26,0c.11.2.23.39.35.59Z"/><path class="cls-5" d="M7.22,9A.14.14,0,0,1,7.2,9L7,9.62l0,.06a1.8,1.8,0,0,1-.62-.82l.06,0,.49-.07h.21A.15.15,0,0,1,7.22,9Z"/><path class="cls-6" d="M7,8.06l-.15.07-.58.15h0a1.56,1.56,0,0,1,.25-1l0,0L7,7.77,7,7.83a.17.17,0,0,1,0,.22Z"/><path class="cls-7" d="M9.78,8.28H9.72l-.57-.15A.38.38,0,0,1,9,8.06a.12.12,0,0,1,0-.18.38.38,0,0,1,.09-.13l.44-.41,0,0A1.81,1.81,0,0,1,9.78,8.28Z"/><path class="cls-8" d="M9.66,8.86a1.57,1.57,0,0,1-.57.78l0-.06c-.08-.17-.16-.34-.23-.51a.49.49,0,0,1,0-.11A.15.15,0,0,1,9,8.77l.27,0,.35,0Z"/><path class="cls-9" d="M9.14,6.87a0,0,0,0,1,0,0l-.53.37a.11.11,0,0,1-.07,0,.15.15,0,0,1-.19-.14l0-.24c0-.13,0-.26,0-.39v0A1.55,1.55,0,0,1,9.14,6.87Z"/><path class="cls-10" d="M7.69,6.53l0,.54s0,.07,0,.11a.15.15,0,0,1-.22.09l-.57-.39v0a1.58,1.58,0,0,1,.84-.38Z"/></g></g></svg>