<svg xmlns="http://www.w3.org/2000/svg" xmlns:xlink="http://www.w3.org/1999/xlink" viewBox="0 0 809.9 791.44"><defs><style>.cls-1{fill:#373435;}.cls-2{fill:url(#linear-gradient);}.cls-3{fill:#fff;}.cls-4{fill:url(#linear-gradient-2);}.cls-5{fill:url(#linear-gradient-3);}.cls-6{fill:url(#linear-gradient-4);}.cls-7{fill:url(#linear-gradient-5);}.cls-8{fill:url(#linear-gradient-6);}.cls-9{fill:url(#linear-gradient-7);}.cls-10{fill:url(#linear-gradient-8);}</style><linearGradient id="linear-gradient" x1="10.46" y1="395.72" x2="799.43" y2="395.72" gradientUnits="userSpaceOnUse"><stop offset="0" stop-color="#fa8303"/><stop offset="1" stop-color="#f4a705"/></linearGradient><linearGradient id="linear-gradient-2" x1="379.74" y1="478.52" x2="434.02" y2="478.52" xlink:href="#linear-gradient"/><linearGradient id="linear-gradient-3" x1="318.27" y1="458.14" x2="365.54" y2="458.14" xlink:href="#linear-gradient"/><linearGradient id="linear-gradient-4" x1="312.57" y1="385.35" x2="356.41" y2="385.35" xlink:href="#linear-gradient"/><linearGradient id="linear-gradient-5" x1="453.67" y1="385.58" x2="496.34" y2="385.58" xlink:href="#linear-gradient"/><linearGradient id="linear-gradient-6" x1="445.15" y1="457.49" x2="489.85" y2="457.49" xlink:href="#linear-gradient"/><linearGradient id="linear-gradient-7" x1="419.27" y1="338.68" x2="463.39" y2="338.68" xlink:href="#linear-gradient"/><linearGradient id="linear-gradient-8" x1="346.21" y1="338.53" x2="389.23" y2="338.53" xlink:href="#linear-gradient"/></defs><g id="Layer_2" data-name="Layer 2"><g id="Layer_1-2" data-name="Layer 1"><path class="cls-1" d="M407.28,10.46c1.46.73,2.91,1.48,4.37,2.2,58,28.31,116,56.78,174.11,84.88,43.81,21.19,87.84,41.93,131.81,62.79a10.51,10.51,0,0,1,6.42,7.92c4.37,20.33,9,40.6,13.46,60.9,8.16,36.76,16.15,73.56,24.54,110.27,10.42,45.62,21.18,91.17,31.79,136.75q2.84,12.22,5.65,24.44v6.54c-1.23,1.65-2.42,3.34-3.71,4.94-36.46,45.18-73.09,90.22-109.34,135.56C652.31,690.27,618.63,733.21,584.8,776c-1.72,2.18-3.51,4.15-6.28,5H559.57c-1.63-.12-3.25-.35-4.87-.36-36.74-.24-73.49-.65-110.23-.65h-1.53c-68.62,0-137.25.3-205.87.47h-1.14c-6.9,0-7.13-.32-11.94-6.42-35.65-45.25-71.14-90.64-107-135.73C82.86,595.42,48.35,552.87,14,510.17A28.09,28.09,0,0,1,11.68,507a6.68,6.68,0,0,1-1-5.26c4.43-18.52,8.73-37.08,13.14-55.61Q53.26,322.6,80.43,198.51c2.34-10.63,4.81-21.23,7.18-31.85.6-2.7,1.79-4.89,4.41-6.1.89-.41,1.76-.85,2.65-1.27,51.26-24.3,102.62-48.41,153.76-73S350.69,36.65,401.8,11.78A24.78,24.78,0,0,0,404,10.46h3.27M409.77,0h-8.66l-2.49,1.5-.91.56-.54.34c-15,7.31-30.28,14.76-45.05,22C316.68,41.65,280,59.53,243.9,76.89c-35.49,17-71.69,34.16-106.7,50.7-15.41,7.29-31.35,14.82-47,22.25l-1.16.55-1.38.67c-3.7,1.7-8.49,5.39-10.25,13.32-1,4.6-2.1,9.29-3.13,13.82-1.34,5.91-2.73,12-4.06,18.06C50.8,284.45,32.29,365.4,13.61,443.74c-2.08,8.72-4.17,17.58-6.18,26.15-2.27,9.66-4.62,19.65-7,29.46a17.08,17.08,0,0,0,2.22,13,30.15,30.15,0,0,0,2.8,3.87l.39.48C16.55,530,27.41,543.48,37.92,556.51c23.29,28.9,47.38,58.77,70.87,88.29,25,31.45,50.28,63.59,74.72,94.68,10.57,13.44,21.5,27.35,32.26,41l0,0c2.87,3.65,4.95,6.29,8.33,8.15,4,2.21,8,2.21,11.79,2.21h1.17l62.08-.17c47.12-.14,95.85-.28,143.76-.3h1.53c26,0,52.5.21,78.11.42l32,.24c.64,0,1.49.08,2.39.17l1.75.15.4,0H580l1.43-.41c6.29-1.83,9.86-6.35,11.57-8.52,9.15-11.58,18.44-23.36,27.42-34.75,24.23-30.73,49.28-62.5,74.12-93.57s50.12-62.33,74.65-92.65c11.37-14,23.12-28.58,34.66-42.88,1-1.28,1.95-2.53,2.84-3.74l1.1-1.5,2.1-2.78V499.42l-.27-1.16-1.77-7.62q-1.93-8.43-3.89-16.84c-3.27-14-6.6-28.3-9.83-42.09-7.25-31-14.75-63.07-22-94.62-5.78-25.34-11.48-51.17-17-76.15-2.46-11.16-5-22.71-7.53-34.06q-1.78-8-3.58-16.06c-3.27-14.67-6.66-29.84-9.87-44.77a21,21,0,0,0-12.15-15.17l-27.3-12.94c-34.28-16.24-69.73-33-104.45-49.82-40.86-19.76-82.34-40-122.45-59.64C451,20.21,433.45,11.65,416.24,3.26l-2.85-1.43L412,1.12,409.77,0Z"/><path class="cls-2" d="M793.78,476.17C783.17,430.59,772.41,385,762,339.42c-8.38-36.71-16.36-73.51-24.53-110.28-4.51-20.29-9.09-40.56-13.46-60.88a10.53,10.53,0,0,0-6.42-7.93c-44-20.86-88-41.61-131.81-62.79C527.63,69.44,469.68,41,411.65,12.66c-1.46-.72-2.91-1.46-4.37-2.2H404c-.73.44-1.44.94-2.21,1.32C350.69,36.65,299.67,61.71,248.43,86.32s-102.5,48.67-153.76,73c-.89.42-1.76.86-2.65,1.27-2.62,1.2-3.81,3.4-4.41,6.09-2.37,10.63-4.84,21.23-7.18,31.86Q53.11,322.58,23.79,446.17c-4.42,18.53-8.72,37.09-13.15,55.61a6.69,6.69,0,0,0,1,5.26A29.29,29.29,0,0,0,14,510.17c34.34,42.7,68.84,85.25,103,128.12,35.86,45.09,71.36,90.48,107,135.74,5.05,6.41,5,6.43,13.07,6.41,68.62-.17,137.25-.45,205.87-.47,37.25,0,74.5.41,111.76.65,1.62,0,3.24.24,4.87.36h18.95c2.76-.8,4.56-2.78,6.28-5,33.83-42.82,67.51-85.76,101.58-128.38,36.25-45.34,72.88-90.38,109.34-135.56,1.29-1.61,2.48-3.29,3.71-4.94v-6.54Q796.61,488.4,793.78,476.17ZM530.28,643a1.34,1.34,0,0,0-.11.14l-.17.09a24.44,24.44,0,0,1-2.46,2.71c-33.7,28.65-72.24,47.14-115.84,54.76-75.62,13.22-151.09-8.72-207.48-60.78-41.19-38-66.26-85-75.45-140.31a238.65,238.65,0,0,1-3.12-40.66c0-1.38-.12-2.77-.2-4.55-8.28-.49-16.38.06-24.63-.33,1.37-2.44,41.61-39.61,46.57-43.19,2.41,1.1,45.55,40.43,47.28,43.28H169.75c-.16,1.82-.4,3.29-.39,4.75.08,53.22,16.36,100.93,49.65,142.44,35.11,43.76,80.48,71.33,135.71,81.32,62,11.19,119.23-1.41,171.29-37,1.28-.88,2.66-1.61,4-2.4l.13-.14.15-.09,1.05-1.21.36.39ZM582,446.47a12.46,12.46,0,0,1-5.94,2.38,36.28,36.28,0,0,1-9.7-.52c-7.92-1.48-15.76-3.36-23.65-4.94-2.26-.45-4.69-1.21-6.59,1.28-.39.53-1.84.43-2.78.34-3.46-.34-6.91-.83-10.38-1.19s-3.55-.33-4.69,2.94A120.17,120.17,0,0,1,476,504.36c-.85.64-1.64,1.35-2.61,2.14.59,1.35,1.08,2.55,1.62,3.71,2,4.34,4.07,8.68,6.07,13,.7,1.5,1.32,3.12.08,4.61s-.73,2.57,0,3.9q4,7.65,8,15.34a81.82,81.82,0,0,1,4.45,9.07,18.69,18.69,0,0,1,1.19,7.31c-.3,6-5.5,8.92-10.68,6a19.56,19.56,0,0,1-6.26-5.57,89.7,89.7,0,0,1-5.89-10.5c-2.3-4.33-4.49-8.7-6.73-13.06-.59-1.14-1.33-2-2.8-1.71-2,.35-3.33-.75-4.38-2.23a26.55,26.55,0,0,1-1.69-2.79c-1.94-3.65-3.84-7.33-5.78-11-.5-.94-1.12-1.82-1.86-3Q406.62,535.45,364,521c-.77,1.11-1.48,2-2.1,3-2.15,3.41-4.26,6.84-6.4,10.26a11.67,11.67,0,0,1-6.36,5.33,4.83,4.83,0,0,0-2.36,2c-3.4,5.69-6.62,11.49-10.06,17.16a93.26,93.26,0,0,1-5.94,8.56,11.63,11.63,0,0,1-6.13,4.16,7.44,7.44,0,0,1-9.58-5.46,12.22,12.22,0,0,1,.67-8.31,84.31,84.31,0,0,1,4.45-8.33c3.08-5.26,6.26-10.46,9.42-15.67a5,5,0,0,0,.69-4.6,7.86,7.86,0,0,1,.86-6.3c1.9-3.67,3.72-7.39,5.55-11.1.52-1.06.93-2.17,1.4-3.27-5.34-4.42-10.77-8.44-15.61-13.08a132,132,0,0,1-13.53-15,129.39,129.39,0,0,1-10.85-17.05c-3.18-5.91-5.59-12.24-8.44-18.63-.67.06-1.52.05-2.35.2-4.92.93-9.83,1.92-14.75,2.84-3.2.6-3.31.52-4.7-2.47-.27-.58-.55-1.16-.94-2a20.53,20.53,0,0,0-2.83.26c-5.85,1.25-11.67,2.69-17.55,3.79a74.74,74.74,0,0,1-10,1,14,14,0,0,1-4.18-.61c-3.35-.86-6.08-2.51-6.69-6.29-.57-3.45,1.11-6.38,4.79-8.51s7.54-2.71,11.51-3.46c6.74-1.28,13.45-2.66,20.18-4,1.32-.26,2.51-.57,2.68-2.31.25-2.7,2.1-3.92,4.56-4.37,3.53-.65,7.09-1.2,10.61-1.91,4.65-.95,4.59-.28,4.45-5.31a118.88,118.88,0,0,1,11.8-55.7c2.08-4.3,4.59-8.4,6.95-12.57,1.29-2.28,1.35-2.29-.6-4.09-2.8-2.58-5.64-5.13-8.46-7.68-1.1-1-1.94-2-1.49-3.69.39-1.42-.62-2.19-1.58-2.95-6.69-5.23-13.4-10.43-20.05-15.72a80,80,0,0,1-6.88-6,11,11,0,0,1-3.26-6.63,6.75,6.75,0,0,1,5-7.74,11.55,11.55,0,0,1,8,.55,29.35,29.35,0,0,1,10.31,6.77c5.42,5.58,12.05,9.63,17.92,14.65,1.08.93,2.23,1.76,3.8.74,1.25-.82,2.3,0,3.27.7,3.06,2.1,6.08,4.24,9.13,6.34,1,.68,2,1.31,3.21,2.12,1.05-.85,2.06-1.62,3-2.47a119.29,119.29,0,0,1,63.06-29.33c3.29-.48,3.35-.48,3.64-3.8.37-4.23.66-8.47,1-12.7.12-1.66.19-3.27,2-4.14,1.32-.63,1.21-2,1.2-3.15-.08-7.51-.1-15-.33-22.54-.13-4-.26-8.07.92-12a19.23,19.23,0,0,1,2.38-5.33c3.42-5,10.07-4.6,12.76.78a23.21,23.21,0,0,1,2,7.18,53.37,53.37,0,0,1,.16,7.49q0,11.76-.06,23.53c0,1.88.1,3.56,2,4.83.76.51,1,2.06,1.13,3.18.34,4.23.51,8.48.78,12.72.2,3.24.3,3.37,3.6,3.83a119.17,119.17,0,0,1,65,30.41c.64.58,1.33,1.1,2.32,1.9,1.17-.75,2.19-1.37,3.17-2,3.06-2.09,6-4.26,9.18-6.25.92-.59,2.39-1.21,3.22-.87,1.64.69,2.53.07,3.79-.77,6.91-4.62,13-10.25,19.25-15.65a48.43,48.43,0,0,1,7.27-4.94,13.46,13.46,0,0,1,8.19-1.73c5,.47,8.05,4.78,6.41,9.55a16.67,16.67,0,0,1-3.53,5.77,65.77,65.77,0,0,1-7,5.92c-6.45,5.18-13,10.29-19.37,15.51a4.06,4.06,0,0,0-1.52,2.63,5.72,5.72,0,0,1-2.36,4.42c-2.48,2.14-4.9,4.33-7.39,6.44a28.45,28.45,0,0,1-2.74,1.84c1,1.75,1.57,2.79,2.19,3.79a118.87,118.87,0,0,1,17.68,69.5c-.18,3.37-.16,3.43,3,4.28s6.53,1.68,9.8,2.5a5.41,5.41,0,0,1,3.7,2.39,4.66,4.66,0,0,0,2.75,2c7.36,1.47,14.76,2.71,22.12,4.16A84.82,84.82,0,0,1,577,432.19a16.29,16.29,0,0,1,5.76,3.57C586.14,439,585.81,443.71,582,446.47ZM706.53,373.8q-14.32,13.14-28.7,26.24-6.39,5.83-12.78,11.68c-1,.87-2,1.68-2.88,2.47-3.15-1.74-45.74-40.85-47.11-43.36,8.24-.61,16.35.2,24.68-.5.13-1.58.33-2.95.33-4.32-.08-57.53-18.93-108.14-57-151.22-35.29-40-79.56-64.74-132.22-73.28-60.94-9.89-117.08,3-168,38.16l-3.18,2.17c56.16-51.67,143.21-76.81,229-51.61,52.9,15.53,95.77,45.83,128.32,90.29S684.69,315,683.9,370.21c1.53.15,2.77.37,4,.37,5.67,0,11.33,0,17,0h3.62C708.54,372.48,707.35,373.05,706.53,373.8Z"/><path class="cls-3" d="M582.71,435.76a16.29,16.29,0,0,0-5.76-3.57,84.82,84.82,0,0,0-11.07-2.74c-7.36-1.45-14.76-2.69-22.12-4.16a4.66,4.66,0,0,1-2.75-2,5.41,5.41,0,0,0-3.7-2.39c-3.27-.82-6.55-1.64-9.8-2.5s-3.21-.91-3-4.28a118.87,118.87,0,0,0-17.68-69.5c-.62-1-1.18-2-2.19-3.79a28.45,28.45,0,0,0,2.74-1.84c2.49-2.11,4.91-4.3,7.39-6.44a5.72,5.72,0,0,0,2.36-4.42,4.06,4.06,0,0,1,1.52-2.63C525,320.33,531.54,315.22,538,310a65.77,65.77,0,0,0,7-5.92,16.67,16.67,0,0,0,3.53-5.77c1.64-4.77-1.41-9.08-6.41-9.55a13.46,13.46,0,0,0-8.19,1.73,48.43,48.43,0,0,0-7.27,4.94c-6.27,5.4-12.34,11-19.25,15.65-1.26.84-2.15,1.46-3.79.77-.83-.34-2.3.28-3.22.87-3.13,2-6.12,4.16-9.18,6.25-1,.67-2,1.29-3.17,2-1-.8-1.68-1.32-2.32-1.9a119.17,119.17,0,0,0-65-30.41c-3.3-.46-3.4-.59-3.6-3.83-.27-4.24-.44-8.49-.78-12.72-.1-1.12-.37-2.67-1.13-3.18-1.9-1.27-2-2.95-2-4.83q0-11.78.06-23.53a53.37,53.37,0,0,0-.16-7.49,23.21,23.21,0,0,0-2-7.18c-2.69-5.38-9.34-5.74-12.76-.78a19.23,19.23,0,0,0-2.38,5.33c-1.18,3.91-1.05,7.94-.92,12,.23,7.51.25,15,.33,22.54,0,1.18.12,2.52-1.2,3.15-1.82.87-1.89,2.48-2,4.14-.3,4.23-.59,8.47-1,12.7-.29,3.32-.35,3.32-3.64,3.8a119.29,119.29,0,0,0-63.06,29.33c-.95.85-2,1.62-3,2.47-1.23-.81-2.23-1.44-3.21-2.12-3.05-2.1-6.07-4.24-9.13-6.34-1-.66-2-1.52-3.27-.7-1.57,1-2.72.19-3.8-.74-5.87-5-12.5-9.07-17.92-14.65a29.35,29.35,0,0,0-10.31-6.77,11.55,11.55,0,0,0-8-.55,6.75,6.75,0,0,0-5,7.74,11,11,0,0,0,3.26,6.63,80,80,0,0,0,6.88,6c6.65,5.29,13.36,10.49,20.05,15.72,1,.76,2,1.53,1.58,2.95-.45,1.65.39,2.7,1.49,3.69,2.82,2.55,5.66,5.1,8.46,7.68,1.95,1.8,1.89,1.81.6,4.09-2.36,4.17-4.87,8.27-6.95,12.57a118.88,118.88,0,0,0-11.8,55.7c.14,5,.2,4.36-4.45,5.31-3.52.71-7.08,1.26-10.61,1.91-2.46.45-4.31,1.67-4.56,4.37-.17,1.74-1.36,2.05-2.68,2.31-6.73,1.34-13.44,2.72-20.18,4-4,.75-7.95,1.4-11.51,3.46s-5.36,5.06-4.79,8.51c.61,3.78,3.34,5.43,6.69,6.29a14,14,0,0,0,4.18.61,74.74,74.74,0,0,0,10-1c5.88-1.1,11.7-2.54,17.55-3.79a20.53,20.53,0,0,1,2.83-.26c.39.82.67,1.4.94,2,1.39,3,1.5,3.07,4.7,2.47,4.92-.92,9.83-1.91,14.75-2.84.83-.15,1.68-.14,2.35-.2,2.85,6.39,5.26,12.72,8.44,18.63A129.39,129.39,0,0,0,309,480.33a132,132,0,0,0,13.53,15c4.84,4.64,10.27,8.66,15.61,13.08-.47,1.1-.88,2.21-1.4,3.27-1.83,3.71-3.65,7.43-5.55,11.1a7.86,7.86,0,0,0-.86,6.3,5,5,0,0,1-.69,4.6c-3.16,5.21-6.34,10.41-9.42,15.67a84.31,84.31,0,0,0-4.45,8.33,12.22,12.22,0,0,0-.67,8.31,7.44,7.44,0,0,0,9.58,5.46,11.63,11.63,0,0,0,6.13-4.16,93.26,93.26,0,0,0,5.94-8.56c3.44-5.67,6.66-11.47,10.06-17.16a4.83,4.83,0,0,1,2.36-2,11.67,11.67,0,0,0,6.36-5.33c2.14-3.42,4.25-6.85,6.4-10.26.62-1,1.33-1.92,2.1-3q42.67,14.58,84.67-1.32c.74,1.2,1.36,2.08,1.86,3,1.94,3.66,3.84,7.34,5.78,11a26.55,26.55,0,0,0,1.69,2.79c1.05,1.48,2.38,2.58,4.38,2.23,1.47-.25,2.21.57,2.8,1.71,2.24,4.36,4.43,8.73,6.73,13.06a89.7,89.7,0,0,0,5.89,10.5,19.56,19.56,0,0,0,6.26,5.57c5.18,2.89,10.38-.07,10.68-6a18.69,18.69,0,0,0-1.19-7.31,81.82,81.82,0,0,0-4.45-9.07q-4-7.7-8-15.34c-.71-1.33-1.12-2.54,0-3.9s.62-3.11-.08-4.61c-2-4.35-4.06-8.69-6.07-13-.54-1.16-1-2.36-1.62-3.71,1-.79,1.76-1.5,2.61-2.14a120.17,120.17,0,0,0,42.27-57.6c1.14-3.27,1.18-3.31,4.69-2.94s6.92.85,10.38,1.19c.94.09,2.39.19,2.78-.34,1.9-2.49,4.33-1.73,6.59-1.28,7.89,1.58,15.73,3.46,23.65,4.94a36.28,36.28,0,0,0,9.7.52,12.46,12.46,0,0,0,5.94-2.38C585.81,443.71,586.14,439,582.71,435.76ZM313.3,410c-3.23-9.11,4.83-40.26,12.82-49.38.74.57,1.53,1.1,2.23,1.74q12,10.78,24,21.64a15.53,15.53,0,0,1,2.74,3.21,8.11,8.11,0,0,1-2.91,11.58,31.6,31.6,0,0,1-7.65,3.6c-9.86,2.69-19.79,5.1-29.7,7.6A6.45,6.45,0,0,1,313.3,410Zm51.83,35.29a23.78,23.78,0,0,1-1,3.09q-6.25,15.25-12.56,30.47c-.32.78-.78,1.52-1.5,2.92a92.61,92.61,0,0,1-31.78-42.32,29.5,29.5,0,0,1,3.24-.88c8.38-1.27,16.76-2.62,25.17-3.68a60.17,60.17,0,0,1,10.74-.32C363.87,435,366.66,439,365.13,445.31Zm10.73-87.24c-9.83-6.45-19.44-13.23-29.12-19.89-.24-.16-.36-.51-.53-.76,5.78-7.88,33.23-20.52,43-19.63,0,1.06.05,1.92,0,2.77-.52,9.24-1,18.48-1.61,27.71a29.83,29.83,0,0,1-.73,5.16C385.61,358.53,380.28,361,375.86,358.07Zm3.88,137.66c.43-.83.81-1.69,1.3-2.49,2.76-4.44,5.59-8.84,8.3-13.31,3.21-5.31,6.31-10.68,9.5-16a28.56,28.56,0,0,1,2.64-3.73c3.49-4.06,10.58-3.33,13.12,1.17,5.71,10.14,11.94,20,17.94,30,.55.91,1,1.88,1.48,2.8C424.75,500.47,390.48,501.46,379.74,495.73Zm51.71-136.24c-4.79,1.07-9-1.95-9.76-7.19-.6-4.08-.89-8.22-1.18-12.34-.47-6.62-.85-13.25-1.23-19.88a24,24,0,0,1,.12-2.4c10.3-.79,37.69,11.84,44,20.17a6.46,6.46,0,0,1-1,1.13q-13.65,9.5-27.36,18.93A10.48,10.48,0,0,1,431.45,359.49Zm29.39,120.38c-.64-1.3-1.19-2.35-1.67-3.42-4-8.7-7.93-17.4-11.82-26.14a29.38,29.38,0,0,1-1.93-5.52c-1.3-5.7,2.08-10.22,8-9.62,4.75.48,9.49,1.08,14.23,1.68q8.9,1.13,17.77,2.34c1.49.2,3,.5,4.4.74C489.59,449,471.52,473.92,460.84,479.87Zm35.47-69.75c-1.57-.24-2.54-.29-3.46-.54-9.67-2.55-19.34-5.06-29-7.75a25.68,25.68,0,0,1-6.54-2.84c-3.61-2.23-4.63-5.5-2.74-9.27a24.91,24.91,0,0,1,4.85-6.87c7.38-7.06,15-13.88,22.53-20.78a13.38,13.38,0,0,1,1.72-1A90.65,90.65,0,0,1,496.31,410.12Z"/><path class="cls-3" d="M708.54,370.6c0,1.88-1.19,2.45-2,3.2q-14.32,13.14-28.7,26.24-6.39,5.83-12.78,11.68c-1,.87-2,1.68-2.88,2.47-3.15-1.74-45.74-40.85-47.11-43.36,8.24-.61,16.35.2,24.68-.5.13-1.58.33-2.95.33-4.32-.08-57.53-18.93-108.14-57-151.22-35.29-40-79.56-64.74-132.22-73.28-60.94-9.89-117.08,3-168,38.16l-3.18,2.17c56.16-51.67,143.21-76.81,229-51.61,52.9,15.53,95.77,45.83,128.32,90.29S684.69,315,683.9,370.21c1.53.15,2.77.37,4,.37,5.67,0,11.33,0,17,0Z"/><path class="cls-3" d="M530,643.2a24.44,24.44,0,0,1-2.46,2.71c-33.7,28.65-72.24,47.14-115.84,54.76-75.62,13.22-151.09-8.72-207.48-60.78-41.19-38-66.26-85-75.45-140.31a238.65,238.65,0,0,1-3.12-40.66c0-1.38-.12-2.77-.2-4.55-8.28-.49-16.38.06-24.63-.33,1.37-2.44,41.61-39.61,46.57-43.19,2.41,1.1,45.55,40.43,47.28,43.28H169.75c-.16,1.82-.4,3.29-.39,4.75.08,53.22,16.36,100.93,49.65,142.44,35.11,43.76,80.48,71.33,135.71,81.32,62,11.19,119.23-1.41,171.29-37C527.29,644.72,528.67,644,530,643.2Z"/><path class="cls-4" d="M434,494.17c-9.27,6.3-43.54,7.29-54.28,1.56.43-.83.81-1.69,1.3-2.49,2.76-4.44,5.59-8.84,8.3-13.31,3.21-5.31,6.31-10.68,9.5-16a28.56,28.56,0,0,1,2.64-3.73c3.49-4.06,10.58-3.33,13.12,1.17,5.71,10.14,11.94,20,17.94,30C433.09,492.28,433.54,493.25,434,494.17Z"/><path class="cls-5" d="M365.13,445.31a23.78,23.78,0,0,1-1,3.09q-6.25,15.25-12.56,30.47c-.32.78-.78,1.52-1.5,2.92a92.61,92.61,0,0,1-31.78-42.32,29.5,29.5,0,0,1,3.24-.88c8.38-1.27,16.76-2.62,25.17-3.68a60.17,60.17,0,0,1,10.74-.32C363.87,435,366.66,439,365.13,445.31Z"/><path class="cls-6" d="M352.17,398.81a31.6,31.6,0,0,1-7.65,3.6c-9.86,2.69-19.79,5.1-29.7,7.6a6.45,6.45,0,0,1-1.52,0c-3.23-9.11,4.83-40.26,12.82-49.38.74.57,1.53,1.1,2.23,1.74q12,10.78,24,21.64a15.53,15.53,0,0,1,2.74,3.21A8.11,8.11,0,0,1,352.17,398.81Z"/><path class="cls-7" d="M496.31,410.12c-1.57-.24-2.54-.29-3.46-.54-9.67-2.55-19.34-5.06-29-7.75a25.68,25.68,0,0,1-6.54-2.84c-3.61-2.23-4.63-5.5-2.74-9.27a24.91,24.91,0,0,1,4.85-6.87c7.38-7.06,15-13.88,22.53-20.78a13.38,13.38,0,0,1,1.72-1A90.65,90.65,0,0,1,496.31,410.12Z"/><path class="cls-8" d="M489.85,439.93c-.26,9.1-18.33,34-29,39.94-.64-1.3-1.19-2.35-1.67-3.42-4-8.7-7.93-17.4-11.82-26.14a29.38,29.38,0,0,1-1.93-5.52c-1.3-5.7,2.08-10.22,8-9.62,4.75.48,9.49,1.08,14.23,1.68q8.9,1.13,17.77,2.34C486.94,439.39,488.41,439.69,489.85,439.93Z"/><path class="cls-9" d="M463.39,337.85a6.46,6.46,0,0,1-1,1.13q-13.65,9.5-27.36,18.93a10.48,10.48,0,0,1-3.55,1.58c-4.79,1.07-9-1.95-9.76-7.19-.6-4.08-.89-8.22-1.18-12.34-.47-6.62-.85-13.25-1.23-19.88a24,24,0,0,1,.12-2.4C429.7,316.89,457.09,329.52,463.39,337.85Z"/><path class="cls-10" d="M389.2,320.56c-.52,9.24-1,18.48-1.61,27.71a29.83,29.83,0,0,1-.73,5.16c-1.25,5.1-6.58,7.54-11,4.64-9.83-6.45-19.44-13.23-29.12-19.89-.24-.16-.36-.51-.53-.76,5.78-7.88,33.23-20.52,43-19.63C389.21,318.85,389.26,319.71,389.2,320.56Z"/></g></g></svg>